<svg width="1500" height="500" viewBox="0 0 1500 500" fill="none" xmlns="http://www.w3.org/2000/svg">
<g clip-path="url(#clip0)">
<rect width="1500" height="500"/>
<path d="M1 498L751 33L1501 498" stroke="#E9E9E9" stroke-width="4" stroke-linecap="round"/>
<path d="M-397 498L751 33L1899 498" stroke="#E9E9E9" stroke-width="4" stroke-linecap="round"/>
<path d="M-1136 498L751 33L2638 498" stroke="#E9E9E9" stroke-width="4" stroke-linecap="round"/>
<path d="M251 498L750.5 33L1250 498" stroke="#E9E9E9" stroke-width="4" stroke-linecap="round"/>
<path d="M464 498L750.474 33L1036.95 498" stroke="#E9E9E9" stroke-width="4" stroke-linecap="round"/>
<path d="M654 498L750 33L846 498" stroke="#E9E9E9" stroke-width="4" stroke-linecap="round"/>
<path class="line-100" d="M-128 500C1267.6 500 1624.83 500 1629 500" stroke="#E9E9E9" stroke-width="4"/>
<path class="line-100" d="M-128 400C1267.6 400 1624.83 400 1629 400" stroke="#E9E9E9" stroke-width="4"/>
<path class="line-75" d="M-128 300C1267.6 300 1624.83 300 1629 300" stroke="#E9E9E9" stroke-width="4"/>
<path class="line-75" d="M-128 225C1267.6 225 1624.83 225 1629 225" stroke="#E9E9E9" stroke-width="4"/>
<path class="line-50" d="M-128 175C1267.6 175 1624.83 175 1629 175" stroke="#E9E9E9" stroke-width="4"/>
<rect width="1501" height="500" fill="url(#paint0_linear)"/>
</g>
<rect x="1169" y="429" width="310" height="52" rx="10" fill="white" fill-opacity="0.75"/>
<rect x="1169" y="429" width="310" height="52" rx="10" fill="#1D9BF0" fill-opacity="0.25"/>
<text fill="#1D9BF0" xml:space="preserve" style="white-space: pre" font-family="-apple-system, BlinkMacSystemFont, 'Segoe UI', Roboto, Helvetica, Arial, sans-serif" font-size="30" font-weight="590" letter-spacing="0em"><tspan x="1235.25" y="465.664">Follow @timolins</tspan></text>
<path d="M1213.62 448.722C1213.64 449.015 1213.64 449.307 1213.64 449.603C1213.64 458.611 1206.83 469 1194.38 469V468.995C1190.7 469 1187.1 467.939 1184 465.938C1184.53 466.003 1185.07 466.036 1185.61 466.037C1188.66 466.04 1191.62 465.01 1194.02 463.113C1191.12 463.058 1188.58 461.156 1187.69 458.379C1188.71 458.576 1189.76 458.535 1190.75 458.261C1187.59 457.619 1185.32 454.825 1185.32 451.579C1185.32 451.55 1185.32 451.521 1185.32 451.493C1186.26 452.021 1187.32 452.314 1188.39 452.346C1185.42 450.344 1184.5 446.359 1186.3 443.244C1189.74 447.503 1194.81 450.092 1200.25 450.366C1199.71 447.998 1200.45 445.517 1202.21 443.852C1204.94 441.271 1209.23 441.404 1211.79 444.148C1213.31 443.847 1214.76 443.287 1216.09 442.493C1215.58 444.071 1214.53 445.412 1213.11 446.263C1214.45 446.104 1215.77 445.742 1217 445.19C1216.09 446.562 1214.95 447.756 1213.62 448.722Z" fill="#1D9BF0"/>
<text fill="black" xml:space="preserve" style="white-space: pre" font-family="-apple-system, BlinkMacSystemFont, 'Segoe UI', Roboto, Helvetica, Arial, sans-serif" font-size="64" font-weight="bold" letter-spacing="0em"><tspan x="595.781" y="251.75">Timo Lins</tspan></text>
<defs>
<linearGradient id="paint0_linear" x1="751" y1="205.5" x2="750.5" y2="526.104" gradientUnits="userSpaceOnUse">
<stop stop-color="white"/>
<stop offset="1" stop-color="white" stop-opacity="0"/>
</linearGradient>
<clipPath id="clip0">
<rect width="1500" height="500" rx="20"/>
</clipPath>
</defs>
<style type="text/css">
@keyframes move-100 {
  from {transform: translateY(0)}
  to {transform: translateY(-100px)}
}
@keyframes move-75 {
  from {transform: translateY(0)}
  to {transform: translateY(-75px)}
}
@keyframes line-50 {
  from {transform: translateY(0)}
  to {transform: translateY(-50px)}
}
.line-100 {
  animation: move-100 4s infinite linear;
}
.line-75 {
  animation: move-75 4s infinite linear;
}
.line-50 {
  animation: move-50 4s infinite linear;
}
</style>
</svg>
